
<global>
amp_veltrack=0
ampeg_release=0.35
</global>

<group>
group_label=Group_65-127
lpc_hicc1=127
lpc_locc1=65

<region>
hikey=A#5
hivel=127
lokey=A5
lovel=1
lpc=CIeTQaZJ3MEh6OxBVMCvwQRwrkFFEIXBKOiEQUO+JMET1ypBfQnuwL/xGUGwPKLAxWLKQFVBMsCxxLNATwYLwHQSfkCzAtS/Mp7FQNXOiMC0r9JAYY9CwCb/xUC3aEPA
lpc_rms=-25.61
pitch_keycenter=A#5
sample=Piccolo_turn_minor_FF_A#4.opus
</region>

<region>
hikey=A#6
hivel=127
lokey=A6
lovel=1
lpc=LUOqQcSIX8FgzYBBu61twIbNJ0GCMVZAlIRVQc4IgUDChwZB6scZQYGKmUDtaFlBcLuOwJahGr8KV0pBDfeXwHEaDkHtf0PAA/U5QFaftMBHu6FAULqVwEFgCEAztTjA
lpc_rms=-22.19
pitch_keycenter=A#6
sample=Piccolo_turn_minor_FF_A#5.opus
</region>

<region>
hikey=C6
hivel=127
lokey=B5
lovel=1
lpc=STyNQWHx1MGlBc5BsYyNweJVeUHUriTBds4vQQjiycCQxcJAAjMiwGPhpkBUCx3AoT6QQKxa079bNkFAan1kPxIisz+E5Xg+M/EMQPKNRD+jseU/GDTbPnwF18CiJbFA
lpc_rms=-24.80
pitch_keycenter=C6
sample=Piccolo_turn_minor_FF_C5.opus
</region>

<region>
hikey=C7
hivel=127
lokey=B6
lovel=1
lpc=QTgeQjbm3MEBJ/xBNkb2wNZ1vkHkzuFAeTGdQQILrr9udLxBGoecQPVjnkHD7OzB0ZqaQa/YKr+CKm/A2h1+QPmoNsEIfSPABRZYv/3x8b+uRA/B5Z18P68wzL3iPX6/
lpc_rms=-15.31
pitch_keycenter=C7
sample=Piccolo_turn_minor_FF_C6.opus
</region>

<region>
hikey=D6
hivel=127
lokey=C#6
lovel=1
lpc=f13DQfzw6cGF9atBhYBmwX0tUUEA1tLAX6cnQbXLkMDmw9RAdo2qP82GJUCuhSRAl7UpQMLy6D9aoSRAfskwQDAEST9l+I5AWBTxP7V6n7/tZ+3A3poGQTZ0EUBWowRA
lpc_rms=-25.49
pitch_keycenter=D6
sample=Piccolo_turn_minor_FF_D5.opus
</region>

<region>
hikey=D7
hivel=127
lokey=C#7
lovel=1
lpc=hWSFQbzzacHbiIhBWJeewLe5SkFbn/s/ECUpQY8XmEA3kw9BE0l1QD7uOb/EGlFBHyRQQPARj0CljglAkhuZQFEcGECkCylAokIqQBMSlUD7i/O/JvqkQOV+SMBLMIZA
lpc_rms=-24.16
pitch_keycenter=D7
sample=Piccolo_turn_minor_FF_D6.opus
</region>

<region>
hivel=127
key=E5
lovel=1
lpc=ArY7QY3py8GGTd9BmkW6wUCrnEGQxHzBkRQ8QSv9EMHz6g1BjD7YwGOFi0CeDXjAREeoQHBanMCR4ERA7+GXv492oD/UFMq+uQOxvkTsiD953KC/U9EKQIrKJsBFEglA
lpc_rms=-32.18
sample=Piccolo_turn_minor_FF_E4.opus
</region>

<region>
hikey=E6
hivel=127
lokey=D#6
lovel=1
lpc=GFJfQXEEh8GezIBBpI4NwRTRHUGZacnAz5zzQLuM4787jsVAnykAvvdfeECoDt8/fXfjP927jkAY3re98wyQQLO4FkDAusW/lhoLwDzW30CUv8a/4G15Pp+xB0CGCMA/
lpc_rms=-29.69
pitch_keycenter=E6
sample=Piccolo_turn_minor_FF_E5.opus
</region>

<region>
hikey=E7
hivel=127
lokey=D#7
lovel=1
lpc=8NHEQYJTb8GxjI1BSL0XwBH2hkFMk8VACN4AQeC4akGW7Yw+Niy1wAwYikFb1ey/aC4rQaeyUMBB3q1ARtYKQNa2yjyCotdAIb+wv/cvl0AevVC/UwWvP8Xdb78VISw/
lpc_rms=-22.40
pitch_keycenter=E7
sample=Piccolo_turn_minor_FF_E6.opus
</region>

<region>
hikey=F#5
hivel=127
lokey=F5
lovel=1
lpc=uqsOQauom8Hf56dBigB8wVXbU0G1vTPBAuUcQZLkCMGgO/JA9tqcwNZaVUCqN/O/YvH5P73Jm7+58CE/mj8uP7dbN78ucd4+1V6RPtYPTz8/0ou/oqgPQAcYSMD4KCVA
lpc_rms=-32.85
pitch_keycenter=F#5
sample=Piccolo_turn_minor_FF_F#4.opus
</region>

<region>
hikey=F#6
hivel=127
lokey=F6
lovel=1
lpc=iZ+rQTTUuMFGr61BBvvbwGlUHEG5mV/Azmg4QW94eL+IxB5BoC3GPzn16kBaUs0/YLPZQOpUokBec11AlpLSvf4HDsBrcAVBd2CMvxAoH0DMPZe+pbNnQAvuYb8csoe/
lpc_rms=-25.06
pitch_keycenter=F#6
sample=Piccolo_turn_minor_FF_F#5.opus
</region>

<region>
hikey=F#7
hivel=127
lokey=F7
lovel=1
lpc=GReQQa2lY8H+daFBfbUPwZYOiUG+YK6/Ot5cQQ3XFz7VC90/ghs0Qdl+xD+lHBlBQfyaPzhCHUHTscA+NyuwQN/mOUDNiR5B/RXHv6QBGUEoPuW8XPkZQCyJkECJSQ9A
lpc_rms=-13.24
pitch_keycenter=F#7
sample=Piccolo_turn_minor_FF_F#6.opus
</region>

<region>
hikey=G#5
hivel=127
lokey=G5
lovel=1
lpc=vMCRQUD3C8JfpSVCaY38wROfz0F6G6rBhcCtQRqHgMFGwlhBKIEQwYAFJkGaFMzAvrdzQMb85j8Pxq++OssPQCqXzr+2LZdAev3ev1P79D/nJIK+p067QF3F5sB1BvFA
lpc_rms=-25.21
pitch_keycenter=G#5
sample=Piccolo_turn_minor_FF_G#4.opus
</region>

<region>
hikey=G#6
hivel=127
lokey=G6
lovel=1
lpc=znnVQYEo18HKmL5Bv/Q4wSndVUH0uoXAAVQnQVsMi0ANRes/pkn8QOTPLzypUsZADURvPujLmkBWHorBlQ5VQbDa8b9/Vf2/axtmQJN1hMCSEKU/mVPBwJ8m/T/pfG/A
lpc_rms=-20.99
pitch_keycenter=G#6
sample=Piccolo_turn_minor_FF_G#5.opus
</region>

<region>
hikey=G#7
hivel=127
lokey=G7
lovel=1
lpc=wUxUQRv70MAiSFVBs3KaP09HSUGA2M1A7LUeQdcO2zune4VBcUH0PxAHSUG775NAWMoZQavQy0BzDNZA5zkSQWMpsEBfi/1AGk29QFtWtkDc9bdAj+aGQBU2mT8MzThA
lpc_rms=-13.22
pitch_keycenter=G#7
sample=Piccolo_turn_minor_FF_G#6.opus
</region>
</group>

<group>
group_label=Group_0-64
lpc_hicc1=64
lpc_locc1=0

<region>
hikey=A#5
hivel=127
lokey=A5
lovel=1
lpc=SFOtQZ2b58E4cq1BkSs4wZyIeUHijVPBWz0iQfN5bcD0maxAhCHKvxUxF0DwLeu+4bJhQHXcqL/hXllAsJ/Hv7iKn0CStxLAQaOmQOallsAV+bVAhm0UvwntlUCys5DA
lpc_rms=-31.18
pitch_keycenter=A#5
sample=Piccolo_turn_minor_PP_A#4.opus
</region>

<region>
hikey=A#6
hivel=127
lokey=A6
lovel=1
lpc=5mO7QSzhn8E0JpVBAR/CwMLOCUHptK1A5qMKQaVO/0C4JZ8/UdweQXjumUABXCdBg0GdwAC5PcB4KmtB0li1wCC1BkHqERjAu27NP1THq8CvzgdASjTsP2aZJsDfTiy/
lpc_rms=-28.83
pitch_keycenter=A#6
sample=Piccolo_turn_minor_PP_A#5.opus
</region>

<region>
hikey=C6
hivel=127
lokey=B5
lovel=1
lpc=KwlKQXa1m8Gj14xBCSFUwdxySUGRngrBMhkFQUnLtMBzB4xAr0Fov07iDUD49Jm/VfYaQFfpF79fokE/XPuePxB6RT9KYp++nRLcP2nt7j167jE+6PFpP/E2j8AN2mlA
lpc_rms=-37.73
pitch_keycenter=C6
sample=Piccolo_turn_minor_PP_C5.opus
</region>

<region>
hikey=C7
hivel=127
lokey=B6
lovel=1
lpc=JjSkQdi8jcGuYWtBhOeCwLQrAkFf3Ys/+HDzQKI4xz80A8xAbQhjQIuN9EAqL0TBmj3PQLRy9kCCNYq/fdDSQG6LOT/moUxAPIICvW9ngEBzEGy/v599QDdHkT+y1IRA
lpc_rms=-31.64
pitch_keycenter=C7
sample=Piccolo_turn_minor_PP_C6.opus
</region>

<region>
hikey=D6
hivel=127
lokey=C#6
lovel=1
lpc=UtceQikkTcK2HhFCxzPAwWLymUEeD6DAkJNGQRgc9cAtqV5BWbfPwDFfdkF27//AODUkQfqIQsAwPixBJ6vSv4P+0kDr5M0/T0LQQCvjPcCGUDHB4A8OQawJ6kAathdA
lpc_rms=-29.65
pitch_keycenter=D6
sample=Piccolo_turn_minor_PP_D5.opus
</region>

<region>
hikey=D7
hivel=127
lokey=C#7
lovel=1
lpc=6mvlQW5OocF3I7BBtt4ewABzX0HEWBRBFDglQTjOSkGueSVBxHhbQYerQcEj7FVBvwz7QBeSSECbB6lAltpeP/KzNEDBwiW/ruXtP1aGgD/zeWa/okb2QAOQTcDiF7E/
lpc_rms=-24.95
pitch_keycenter=D7
sample=Piccolo_turn_minor_PP_D6.opus
</region>

<region>
hivel=127
key=E5
lovel=1
lpc=KKtTQTyazsHZA95BZ17bwQm7xEGiM4/BOahoQcSZU8HuIzNBRykMwWug30DwM5zAOA2sQOCENsAi0lu+GaF3P7bWir59uQi//a/vP5Xmpb9uFRw9txcZP9VB4D7u5Qc/
lpc_rms=-38.20
sample=Piccolo_turn_minor_PP_E4.opus
</region>

<region>
hikey=E6
hivel=127
lokey=D#6
lovel=1
lpc=U+WcQROyt8E6A41BeLQWwSV7CkFHmZq+4+9cQAIzWr9yz/pADU+Lvlb4mUBfF/M/MpdiQOQFF0DY3FpAwQT6P7p+tkBt9JbAiTONv17iv0BmX9o/iLyAQH1GbcACtnJA
lpc_rms=-31.71
pitch_keycenter=E6
sample=Piccolo_turn_minor_PP_E5.opus
</region>

<region>
hikey=E7
hivel=127
lokey=D#7
lovel=1
lpc=ihEUQimSYMFnmcdBFmuqPjlnskGtkH9B18yLQV7ZYEHNHCtBXjVQwYxCdEEwbu8/Xn3jQH9CTr8Mh/c+YyEWwPBDoEAUtP8/tcxYv2Ld4ECWdRTA/sEdQF361b6+H4+/
lpc_rms=-22.08
pitch_keycenter=E7
sample=Piccolo_turn_minor_PP_E6.opus
</region>

<region>
hikey=F#5
hivel=127
lokey=F5
lovel=1
lpc=5lMHQc8odcFzRmBBHz09wWxMRUHMcxvB7GULQSSNAcFOVsZAzeGEwL91f0DpwBHAudf+P18zYr84uCQ/E1krv8mVqT47vtw+Nk4uP3EJAT8Y3AO/0VtTPhKpl7927gpA
lpc_rms=-41.25
pitch_keycenter=F#5
sample=Piccolo_turn_minor_PP_F#4.opus
</region>

<region>
hikey=F#6
hivel=127
lokey=F6
lovel=1
lpc=iDJPQUxUU8HDPR9BnkBJwEQErUCsZTg//bxVQC88rz/IMGtANQpWQCWAH0DF4S1A8yGUQO+3L0BFcTFASTKZPr1oEb/a7JBAc6UCQIqMvz8SfwW+u9HeP+haAT+CLno/
lpc_rms=-34.66
pitch_keycenter=F#6
sample=Piccolo_turn_minor_PP_F#5.opus
</region>

<region>
hikey=F#7
hivel=127
lokey=F7
lovel=1
lpc=GReQQa2lY8H+daFBfbUPwZYOiUG+YK6/Ot5cQQ3XFz7VC90/ghs0Qdl+xD+lHBlBQfyaPzhCHUHTscA+NyuwQN/mOUDNiR5B/RXHv6QBGUEoPuW8XPkZQCyJkECJSQ9A
lpc_rms=-13.24
pitch_keycenter=F#7
sample=Piccolo_turn_minor_PP_F#6.opus
</region>

<region>
hikey=G#5
hivel=127
lokey=G5
lovel=1
lpc=YYCVQTKlAsK0dANC2WS0wWo9sEFZQp7Bq3iSQY6fQsEDbhpB7Q+CwJpZsUBMjkrAPs+FP2sbTkCgZl8/BtDsvtzN9TzHEx9AQTjVP07kmT2uwSc/hhUCQLcGEcBVqqFA
lpc_rms=-31.94
pitch_keycenter=G#5
sample=Piccolo_turn_minor_PP_G#4.opus
</region>

<region>
hikey=G#6
hivel=127
lokey=G6
lovel=1
lpc=HlNaQY5lN8FNuz5BR5SmwMIU30CkmDTAlz0JQZGfdT8AhtFArS7fPsCQskAjVog/O9CLQLuaA0CT+ZjA7plqQCmiKkC18du/iQ6FQBEDrb6i+949+7rpv+JNF7/Fevi+
lpc_rms=-33.00
pitch_keycenter=G#6
sample=Piccolo_turn_minor_PP_G#5.opus
</region>

<region>
hikey=G#7
hivel=127
lokey=G7
lovel=1
lpc=wUxUQRv70MAiSFVBs3KaP09HSUGA2M1A7LUeQdcO2zune4VBcUH0PxAHSUG775NAWMoZQavQy0BzDNZA5zkSQWMpsEBfi/1AGk29QFtWtkDc9bdAj+aGQBU2mT8MzThA
lpc_rms=-13.22
pitch_keycenter=G#7
sample=Piccolo_turn_minor_PP_G#6.opus
</region>
</group>